<mxfile host="app.diagrams.net" modified="2022-12-15T19:12:20.498Z" agent="5.0 (Windows NT 10.0; Win64; x64) AppleWebKit/537.36 (KHTML, like Gecko) Chrome/108.0.0.0 Safari/537.36" etag="cM_osnxjA__ngqck4bWO" version="20.7.3" type="github">
  <diagram id="C5RBs43oDa-KdzZeNtuy" name="Page-1">
    <mxGraphModel dx="1434" dy="756" grid="1" gridSize="10" guides="1" tooltips="1" connect="1" arrows="1" fold="1" page="1" pageScale="1" pageWidth="827" pageHeight="1169" math="0" shadow="0">
      <root>
        <mxCell id="WIyWlLk6GJQsqaUBKTNV-0" />
        <mxCell id="WIyWlLk6GJQsqaUBKTNV-1" parent="WIyWlLk6GJQsqaUBKTNV-0" />
        <mxCell id="lQhNjR4lgMlTLbbqgxDL-8" value="&lt;b&gt;Введение в программирование. Семинар 2. Домашнее задание. Задача 2:&lt;br&gt;&lt;/b&gt;&lt;div&gt;&lt;div&gt;Задание на «разворот» массива. Нужно перевернуть массив и&amp;nbsp;&lt;span style=&quot;background-color: initial;&quot;&gt;записать его в обратном порядке.&lt;/span&gt;&lt;/div&gt;&lt;/div&gt;" style="text;html=1;align=left;verticalAlign=middle;resizable=0;points=[];autosize=1;strokeColor=none;fillColor=none;" parent="WIyWlLk6GJQsqaUBKTNV-1" vertex="1">
          <mxGeometry x="120" y="50" width="570" height="40" as="geometry" />
        </mxCell>
        <mxCell id="lQhNjR4lgMlTLbbqgxDL-19" value="&lt;b&gt;Рябцев А.А.&lt;/b&gt;" style="text;html=1;align=left;verticalAlign=middle;resizable=0;points=[];autosize=1;strokeColor=none;fillColor=none;" parent="WIyWlLk6GJQsqaUBKTNV-1" vertex="1">
          <mxGeometry x="20" y="10" width="90" height="30" as="geometry" />
        </mxCell>
        <mxCell id="Qr2Irbd59sxccxW-SKQj-0" value="" style="edgeStyle=orthogonalEdgeStyle;rounded=0;orthogonalLoop=1;jettySize=auto;html=1;" edge="1" parent="WIyWlLk6GJQsqaUBKTNV-1" source="Qr2Irbd59sxccxW-SKQj-1" target="Qr2Irbd59sxccxW-SKQj-4">
          <mxGeometry relative="1" as="geometry" />
        </mxCell>
        <mxCell id="Qr2Irbd59sxccxW-SKQj-1" value="&lt;b&gt;Start&lt;/b&gt;" style="rounded=1;whiteSpace=wrap;html=1;fontSize=12;glass=0;strokeWidth=1;shadow=0;" vertex="1" parent="WIyWlLk6GJQsqaUBKTNV-1">
          <mxGeometry x="210" y="120" width="120" height="40" as="geometry" />
        </mxCell>
        <mxCell id="Qr2Irbd59sxccxW-SKQj-2" value="&lt;b&gt;print(count_maximal)&lt;/b&gt;" style="rounded=1;whiteSpace=wrap;html=1;fontSize=12;glass=0;strokeWidth=1;shadow=0;" vertex="1" parent="WIyWlLk6GJQsqaUBKTNV-1">
          <mxGeometry x="436" y="337.5" width="164" height="40" as="geometry" />
        </mxCell>
        <mxCell id="Qr2Irbd59sxccxW-SKQj-3" value="" style="edgeStyle=orthogonalEdgeStyle;rounded=0;orthogonalLoop=1;jettySize=auto;html=1;" edge="1" parent="WIyWlLk6GJQsqaUBKTNV-1" source="Qr2Irbd59sxccxW-SKQj-4" target="Qr2Irbd59sxccxW-SKQj-17">
          <mxGeometry relative="1" as="geometry" />
        </mxCell>
        <mxCell id="Qr2Irbd59sxccxW-SKQj-4" value="&lt;div style=&quot;text-align: justify;&quot;&gt;&lt;span style=&quot;background-color: initial;&quot;&gt;numbers = [1, 8, 3, 8, 2, 6, 8, 8]&lt;/span&gt;&lt;/div&gt;&lt;div style=&quot;text-align: justify;&quot;&gt;&lt;span style=&quot;background-color: initial;&quot;&gt;N = 8&lt;/span&gt;&lt;/div&gt;&lt;div style=&quot;text-align: justify;&quot;&gt;&lt;span style=&quot;background-color: initial;&quot;&gt;index = 0&lt;/span&gt;&lt;/div&gt;" style="shape=parallelogram;perimeter=parallelogramPerimeter;whiteSpace=wrap;html=1;fixedSize=1;" vertex="1" parent="WIyWlLk6GJQsqaUBKTNV-1">
          <mxGeometry x="159.5" y="200" width="221" height="70" as="geometry" />
        </mxCell>
        <mxCell id="Qr2Irbd59sxccxW-SKQj-5" value="&lt;b&gt;&lt;u&gt;&lt;font color=&quot;#00cc00&quot;&gt;Да&lt;/font&gt;&lt;/u&gt;&lt;/b&gt;" style="text;html=1;align=center;verticalAlign=middle;resizable=0;points=[];autosize=1;strokeColor=none;fillColor=none;" vertex="1" parent="WIyWlLk6GJQsqaUBKTNV-1">
          <mxGeometry x="270" y="405" width="40" height="30" as="geometry" />
        </mxCell>
        <mxCell id="Qr2Irbd59sxccxW-SKQj-6" value="&lt;b&gt;&lt;u&gt;&lt;font color=&quot;#cc0000&quot;&gt;Нет&lt;/font&gt;&lt;/u&gt;&lt;/b&gt;" style="text;html=1;align=center;verticalAlign=middle;resizable=0;points=[];autosize=1;strokeColor=none;fillColor=none;" vertex="1" parent="WIyWlLk6GJQsqaUBKTNV-1">
          <mxGeometry x="376" y="327.5" width="40" height="30" as="geometry" />
        </mxCell>
        <mxCell id="Qr2Irbd59sxccxW-SKQj-7" style="edgeStyle=orthogonalEdgeStyle;rounded=0;orthogonalLoop=1;jettySize=auto;html=1;entryX=0;entryY=0.5;entryDx=0;entryDy=0;exitX=0;exitY=0.5;exitDx=0;exitDy=0;" edge="1" parent="WIyWlLk6GJQsqaUBKTNV-1" source="Qr2Irbd59sxccxW-SKQj-10" target="Qr2Irbd59sxccxW-SKQj-17">
          <mxGeometry relative="1" as="geometry">
            <Array as="points">
              <mxPoint x="96" y="727.5" />
              <mxPoint x="96" y="357.5" />
            </Array>
            <mxPoint x="183" y="357.5" as="targetPoint" />
          </mxGeometry>
        </mxCell>
        <mxCell id="Qr2Irbd59sxccxW-SKQj-8" value="&lt;b&gt;&lt;u&gt;&lt;font color=&quot;#cc0000&quot;&gt;Нет&lt;/font&gt;&lt;/u&gt;&lt;/b&gt;" style="text;html=1;align=center;verticalAlign=middle;resizable=0;points=[];autosize=1;strokeColor=none;fillColor=none;" vertex="1" parent="WIyWlLk6GJQsqaUBKTNV-1">
          <mxGeometry x="270" y="532.5" width="40" height="30" as="geometry" />
        </mxCell>
        <mxCell id="Qr2Irbd59sxccxW-SKQj-9" style="edgeStyle=orthogonalEdgeStyle;rounded=0;orthogonalLoop=1;jettySize=auto;html=1;entryX=0.5;entryY=1;entryDx=0;entryDy=0;exitX=1;exitY=0.5;exitDx=0;exitDy=0;" edge="1" parent="WIyWlLk6GJQsqaUBKTNV-1" source="Qr2Irbd59sxccxW-SKQj-23" target="Qr2Irbd59sxccxW-SKQj-10">
          <mxGeometry relative="1" as="geometry">
            <mxPoint x="682" y="457.5" as="sourcePoint" />
            <Array as="points">
              <mxPoint x="732" y="485.5" />
              <mxPoint x="732" y="797.5" />
              <mxPoint x="270" y="797.5" />
            </Array>
          </mxGeometry>
        </mxCell>
        <mxCell id="Qr2Irbd59sxccxW-SKQj-10" value="index = index + 1" style="rounded=0;whiteSpace=wrap;html=1;" vertex="1" parent="WIyWlLk6GJQsqaUBKTNV-1">
          <mxGeometry x="210" y="697.5" width="120" height="60" as="geometry" />
        </mxCell>
        <mxCell id="Qr2Irbd59sxccxW-SKQj-11" style="edgeStyle=orthogonalEdgeStyle;rounded=0;orthogonalLoop=1;jettySize=auto;html=1;entryX=1;entryY=0.5;entryDx=0;entryDy=0;exitX=0.5;exitY=1;exitDx=0;exitDy=0;" edge="1" parent="WIyWlLk6GJQsqaUBKTNV-1" source="Qr2Irbd59sxccxW-SKQj-22" target="Qr2Irbd59sxccxW-SKQj-10">
          <mxGeometry relative="1" as="geometry">
            <mxPoint x="542" y="687.5" as="sourcePoint" />
            <Array as="points">
              <mxPoint x="529" y="727.5" />
            </Array>
          </mxGeometry>
        </mxCell>
        <mxCell id="Qr2Irbd59sxccxW-SKQj-12" value="" style="edgeStyle=orthogonalEdgeStyle;rounded=0;orthogonalLoop=1;jettySize=auto;html=1;" edge="1" parent="WIyWlLk6GJQsqaUBKTNV-1" source="Qr2Irbd59sxccxW-SKQj-14" target="Qr2Irbd59sxccxW-SKQj-20">
          <mxGeometry relative="1" as="geometry" />
        </mxCell>
        <mxCell id="Qr2Irbd59sxccxW-SKQj-13" value="" style="edgeStyle=orthogonalEdgeStyle;rounded=0;orthogonalLoop=1;jettySize=auto;html=1;" edge="1" parent="WIyWlLk6GJQsqaUBKTNV-1" source="Qr2Irbd59sxccxW-SKQj-14" target="Qr2Irbd59sxccxW-SKQj-23">
          <mxGeometry relative="1" as="geometry" />
        </mxCell>
        <mxCell id="Qr2Irbd59sxccxW-SKQj-14" value="numbers[index] &lt;b&gt;&amp;gt;&lt;/b&gt; maximum" style="rhombus;whiteSpace=wrap;html=1;" vertex="1" parent="WIyWlLk6GJQsqaUBKTNV-1">
          <mxGeometry x="168" y="437.5" width="204" height="95" as="geometry" />
        </mxCell>
        <mxCell id="Qr2Irbd59sxccxW-SKQj-15" value="" style="edgeStyle=orthogonalEdgeStyle;rounded=0;orthogonalLoop=1;jettySize=auto;html=1;" edge="1" parent="WIyWlLk6GJQsqaUBKTNV-1" source="Qr2Irbd59sxccxW-SKQj-17" target="Qr2Irbd59sxccxW-SKQj-2">
          <mxGeometry relative="1" as="geometry" />
        </mxCell>
        <mxCell id="Qr2Irbd59sxccxW-SKQj-16" value="" style="edgeStyle=orthogonalEdgeStyle;rounded=0;orthogonalLoop=1;jettySize=auto;html=1;" edge="1" parent="WIyWlLk6GJQsqaUBKTNV-1" source="Qr2Irbd59sxccxW-SKQj-17" target="Qr2Irbd59sxccxW-SKQj-14">
          <mxGeometry relative="1" as="geometry" />
        </mxCell>
        <mxCell id="Qr2Irbd59sxccxW-SKQj-17" value="index &lt;b&gt;&amp;lt;&lt;/b&gt; numbers.length" style="rhombus;whiteSpace=wrap;html=1;" vertex="1" parent="WIyWlLk6GJQsqaUBKTNV-1">
          <mxGeometry x="168" y="310" width="204" height="95" as="geometry" />
        </mxCell>
        <mxCell id="Qr2Irbd59sxccxW-SKQj-18" value="" style="edgeStyle=orthogonalEdgeStyle;rounded=0;orthogonalLoop=1;jettySize=auto;html=1;" edge="1" parent="WIyWlLk6GJQsqaUBKTNV-1" source="Qr2Irbd59sxccxW-SKQj-20" target="Qr2Irbd59sxccxW-SKQj-10">
          <mxGeometry relative="1" as="geometry" />
        </mxCell>
        <mxCell id="Qr2Irbd59sxccxW-SKQj-19" value="" style="edgeStyle=orthogonalEdgeStyle;rounded=0;orthogonalLoop=1;jettySize=auto;html=1;" edge="1" parent="WIyWlLk6GJQsqaUBKTNV-1" source="Qr2Irbd59sxccxW-SKQj-20" target="Qr2Irbd59sxccxW-SKQj-22">
          <mxGeometry relative="1" as="geometry" />
        </mxCell>
        <mxCell id="Qr2Irbd59sxccxW-SKQj-20" value="numbers[index] &lt;b&gt;=&lt;/b&gt; maximum" style="rhombus;whiteSpace=wrap;html=1;" vertex="1" parent="WIyWlLk6GJQsqaUBKTNV-1">
          <mxGeometry x="168" y="562.5" width="204" height="95" as="geometry" />
        </mxCell>
        <mxCell id="Qr2Irbd59sxccxW-SKQj-21" value="&lt;b&gt;&lt;u&gt;&lt;font color=&quot;#cc0000&quot;&gt;Нет&lt;/font&gt;&lt;/u&gt;&lt;/b&gt;" style="text;html=1;align=center;verticalAlign=middle;resizable=0;points=[];autosize=1;strokeColor=none;fillColor=none;" vertex="1" parent="WIyWlLk6GJQsqaUBKTNV-1">
          <mxGeometry x="270" y="657.5" width="40" height="30" as="geometry" />
        </mxCell>
        <mxCell id="Qr2Irbd59sxccxW-SKQj-22" value="count_maximal = count_maximal + 1" style="rounded=0;whiteSpace=wrap;html=1;" vertex="1" parent="WIyWlLk6GJQsqaUBKTNV-1">
          <mxGeometry x="436" y="580" width="226" height="60" as="geometry" />
        </mxCell>
        <mxCell id="Qr2Irbd59sxccxW-SKQj-23" value="&lt;div style=&quot;text-align: justify;&quot;&gt;&lt;span style=&quot;background-color: initial;&quot;&gt;maximum = numbers[index]&lt;/span&gt;&lt;/div&gt;&lt;div style=&quot;text-align: justify;&quot;&gt;&lt;span style=&quot;background-color: initial;&quot;&gt;count_maximal = 1&lt;/span&gt;&lt;/div&gt;" style="rounded=0;whiteSpace=wrap;html=1;" vertex="1" parent="WIyWlLk6GJQsqaUBKTNV-1">
          <mxGeometry x="436" y="455" width="226" height="60" as="geometry" />
        </mxCell>
        <mxCell id="Qr2Irbd59sxccxW-SKQj-24" value="&lt;b&gt;&lt;u&gt;&lt;font color=&quot;#00cc00&quot;&gt;Да&lt;/font&gt;&lt;/u&gt;&lt;/b&gt;" style="text;html=1;align=center;verticalAlign=middle;resizable=0;points=[];autosize=1;strokeColor=none;fillColor=none;" vertex="1" parent="WIyWlLk6GJQsqaUBKTNV-1">
          <mxGeometry x="370" y="455" width="40" height="30" as="geometry" />
        </mxCell>
        <mxCell id="Qr2Irbd59sxccxW-SKQj-25" value="&lt;b&gt;&lt;u&gt;&lt;font color=&quot;#00cc00&quot;&gt;Да&lt;/font&gt;&lt;/u&gt;&lt;/b&gt;" style="text;html=1;align=center;verticalAlign=middle;resizable=0;points=[];autosize=1;strokeColor=none;fillColor=none;" vertex="1" parent="WIyWlLk6GJQsqaUBKTNV-1">
          <mxGeometry x="370" y="580" width="40" height="30" as="geometry" />
        </mxCell>
        <mxCell id="Qr2Irbd59sxccxW-SKQj-27" value="" style="verticalLabelPosition=bottom;verticalAlign=top;html=1;shape=hexagon;perimeter=hexagonPerimeter2;arcSize=6;size=0.27;" vertex="1" parent="WIyWlLk6GJQsqaUBKTNV-1">
          <mxGeometry x="680" y="330" width="100" height="60" as="geometry" />
        </mxCell>
      </root>
    </mxGraphModel>
  </diagram>
</mxfile>
